<svg width="36" height="36" viewBox="0 0 36 36" fill="none" xmlns="http://www.w3.org/2000/svg">
    <path
        d="M4.01072 18.9749C2.0494 9.14822 10.0337 5.61505 13.5484 4.90374C24.1492 2.75341 32.1548 7.85064 32.1548 16.6938C32.1548 25.537 29.2148 30.4506 19.4221 31.4312C9.62903 32.4144 5.96959 28.8017 4.01072 18.9749Z"
        fill="#DD0E23" />
    <path
        d="M15.9855 15.0461C15.8592 14.4131 16.3733 14.1856 16.5996 14.1397C17.2822 14.0011 17.798 14.3295 17.798 14.8989C17.798 15.4684 17.6086 15.7849 16.978 15.848C16.3475 15.9116 16.1118 15.6787 15.9855 15.0461Z"
        fill="white" />
    <path
        d="M7.61602 18.9991C7.49959 17.7134 7.65333 16.1723 7.69392 15.7656C7.81035 14.5968 8.28592 14.0298 9.15958 14.0298C10.3243 14.0298 10.4215 16.4281 11.6157 16.4281C12.8096 16.4281 12.5669 13.9716 14.0813 13.9716C15.2174 13.9716 15.1879 14.9867 15.3047 16.0387C15.4011 16.9099 15.4211 18.649 15.3047 19.3258C15.1711 20.1032 14.9259 20.6775 14.14 20.6775C13.3536 20.6775 13.3635 20.0216 13.3635 19.35C13.3635 18.6785 13.3881 17.3924 13.3881 17.3924C13.3881 17.3924 12.4509 18.6465 11.4608 18.6465C10.4707 18.6465 9.53881 17.1854 9.53881 17.1854V19.3767C9.53881 20.3118 9.30594 20.6624 8.60693 20.6624C7.9071 20.6624 7.72917 20.2499 7.61602 18.9991Z"
        fill="white" />
    <path
        d="M17.8421 19.6998C17.8421 20.4332 17.4395 20.662 16.8766 20.662C16.3137 20.662 15.9111 20.4328 15.9111 19.6998L15.8574 17.6655C15.8574 16.9321 16.3137 16.3376 16.8766 16.3376C17.4395 16.3376 17.8958 16.9321 17.8958 17.6655L17.8421 19.6998Z"
        fill="white" />
    <path
        d="M20.5999 23.4019C20.0915 23.3642 19.7844 23.0558 19.7844 22.5836C19.7844 22.1113 20.0686 21.7456 20.5101 21.7652L20.9684 21.7862C21.3682 21.8042 21.7695 21.9567 21.7695 22.5836C21.7691 23.1419 21.4043 23.4617 20.5999 23.4019ZM20.1194 17.6745C20.3912 17.5187 20.8315 17.5827 20.8315 17.5827C21.1948 17.5991 21.5592 17.9229 21.5592 18.3071C21.5592 18.6908 21.2763 19.0151 20.9131 19.0315L20.4966 19.0504C20.0956 19.0688 19.7188 18.8778 19.6922 18.376C19.6729 18.0054 19.8476 17.8303 20.1194 17.6745ZM21.749 20.6021L20.5482 20.5562C20.5454 20.546 20.5429 20.5357 20.5429 20.5255C20.5429 20.457 20.6142 20.3832 20.7266 20.3488L21.1624 20.3291H21.3346V20.3213L21.592 20.3098C22.628 20.2627 23.4336 19.339 23.4336 18.2448C23.4336 17.9853 23.3746 17.736 23.2721 17.5052C23.6226 17.3838 23.7391 17.1223 23.7391 16.7197C23.7391 16.2072 23.2319 15.9116 22.5596 16.0362C22.4247 16.0612 22.1857 16.1465 22.0459 16.3363C21.8249 16.2453 21.592 16.1904 21.3596 16.1797C21.3596 16.1797 20.5851 16.0772 19.8082 16.233C19.0317 16.3888 18.154 17.0337 18.2929 18.3952C18.3795 19.2451 18.7443 19.8277 19.2896 20.1282C19.2183 20.2524 19.1773 20.3861 19.1773 20.5255C19.1773 20.6739 19.1945 20.8075 19.2252 20.9297C18.7583 21.293 18.4893 21.8751 18.4344 22.4884C18.3421 23.5232 18.7206 24.2198 20.0021 24.4535C21.0906 24.6519 22.0213 24.4535 22.0213 24.4535C23.2856 24.1427 23.8075 23.4265 23.8075 22.5836C23.8084 21.2659 22.8683 20.6452 21.749 20.6021Z"
        fill="white" />
    <path
        d="M26.3073 19.2377C25.6768 19.3009 25.441 19.0684 25.3147 18.4354C25.1885 17.8024 25.7026 17.5749 25.9289 17.529C26.6115 17.3904 27.1273 17.7188 27.1273 18.2882C27.1273 18.8577 26.9383 19.1746 26.3073 19.2377ZM25.5394 16.0338C24.9322 16.1568 23.5527 16.7672 23.8917 18.4649C24.2304 20.1627 24.8625 20.787 26.5545 20.6169C28.2465 20.4476 28.7544 19.5985 28.7544 18.0705C28.754 16.543 27.3712 15.6619 25.5394 16.0338Z"
        fill="white" />
</svg>