<svg width="85" height="22" viewBox="0 0 85 22" fill="none" xmlns="http://www.w3.org/2000/svg">
    <path
        d="M7.78906 6.11133C7.76172 6.70508 7.60156 7.23047 7.30859 7.6875C7.01562 8.14062 6.60352 8.49219 6.07227 8.74219C5.54492 8.99219 4.94141 9.11719 4.26172 9.11719C3.14062 9.11719 2.25781 8.75195 1.61328 8.02148C0.96875 7.29102 0.646484 6.25977 0.646484 4.92773V4.50586C0.646484 3.66992 0.791016 2.93945 1.08008 2.31445C1.37305 1.68555 1.79297 1.20117 2.33984 0.861328C2.88672 0.517578 3.51953 0.345703 4.23828 0.345703C5.27344 0.345703 6.10547 0.619141 6.73438 1.16602C7.36328 1.70898 7.7207 2.45898 7.80664 3.41602H5.75586C5.74023 2.89648 5.60938 2.52344 5.36328 2.29688C5.11719 2.07031 4.74219 1.95703 4.23828 1.95703C3.72656 1.95703 3.35156 2.14844 3.11328 2.53125C2.875 2.91406 2.75 3.52539 2.73828 4.36523V4.96875C2.73828 5.87891 2.85156 6.5293 3.07812 6.91992C3.30859 7.31055 3.70312 7.50586 4.26172 7.50586C4.73438 7.50586 5.0957 7.39453 5.3457 7.17188C5.5957 6.94922 5.72852 6.5957 5.74414 6.11133H7.78906ZM20.9863 4.91016C20.9863 5.74219 20.832 6.47852 20.5234 7.11914C20.2148 7.75977 19.7754 8.25391 19.2051 8.60156C18.6387 8.94531 17.9922 9.11719 17.2656 9.11719C16.5391 9.11719 15.8945 8.95117 15.332 8.61914C14.7695 8.2832 14.3301 7.80469 14.0137 7.18359C13.7012 6.5625 13.5371 5.84961 13.5215 5.04492V4.56445C13.5215 3.72852 13.6738 2.99219 13.9785 2.35547C14.2871 1.71484 14.7266 1.2207 15.2969 0.873047C15.8711 0.525391 16.5234 0.351562 17.2539 0.351562C17.9766 0.351562 18.6211 0.523437 19.1875 0.867188C19.7539 1.21094 20.1934 1.70117 20.5059 2.33789C20.8223 2.9707 20.9824 3.69727 20.9863 4.51758V4.91016ZM18.8945 4.55273C18.8945 3.70508 18.752 3.0625 18.4668 2.625C18.1855 2.18359 17.7812 1.96289 17.2539 1.96289C16.2227 1.96289 15.6777 2.73633 15.6191 4.2832L15.6133 4.91016C15.6133 5.74609 15.752 6.38867 16.0293 6.83789C16.3066 7.28711 16.7188 7.51172 17.2656 7.51172C17.7852 7.51172 18.1855 7.29102 18.4668 6.84961C18.748 6.4082 18.8906 5.77344 18.8945 4.94531V4.55273ZM34.1719 9H32.127L29.1035 3.69141V9H27.0469V0.46875H29.1035L32.1211 5.77734V0.46875H34.1719V9ZM46.9941 2.05664H44.4336V9H42.377V2.05664H39.8633V0.46875H46.9941V2.05664ZM58.1582 5.38477H54.9238V7.41797H58.7441V9H52.8672V0.46875H58.7559V2.05664H54.9238V3.85547H58.1582V5.38477ZM71.707 9H69.6621L66.6387 3.69141V9H64.582V0.46875H66.6387L69.6562 5.77734V0.46875H71.707V9ZM84.5293 2.05664H81.9688V9H79.9121V2.05664H77.3984V0.46875H84.5293V2.05664ZM3.375 12.4688L5.2793 18.4043L7.17773 12.4688H9.88477V21H7.82227V19.0078L8.02148 14.9297L5.95898 21H4.59961L2.53125 14.9238L2.73047 19.0078V21H0.673828V12.4688H3.375ZM18.1484 19.4062H15.3301L14.8379 21H12.6406L15.7695 12.4688H17.7031L20.8555 21H18.6465L18.1484 19.4062ZM15.8223 17.8184H17.6562L16.7363 14.8594L15.8223 17.8184ZM26.6523 17.9883H25.5391V21H23.4824V12.4688H26.8398C27.8516 12.4688 28.6426 12.6934 29.2129 13.1426C29.7832 13.5918 30.0684 14.2266 30.0684 15.0469C30.0684 15.6406 29.9473 16.1328 29.7051 16.5234C29.4668 16.9141 29.0918 17.2305 28.5801 17.4727L30.3613 20.9121V21H28.1582L26.6523 17.9883ZM25.5391 16.4004H26.8398C27.2305 16.4004 27.5234 16.2988 27.7188 16.0957C27.918 15.8887 28.0176 15.6016 28.0176 15.2344C28.0176 14.8672 27.918 14.5801 27.7188 14.373C27.5195 14.1621 27.2266 14.0566 26.8398 14.0566H25.5391V16.4004ZM36.2109 17.8242L35.3672 18.75V21H33.3105V12.4688H35.3672V16.2305L36.082 15.1465L37.9219 12.4688H40.4648L37.582 16.2422L40.4648 21H38.0273L36.2109 17.8242ZM48.2773 17.3848H45.043V19.418H48.8633V21H42.9863V12.4688H48.875V14.0566H45.043V15.8555H48.2773V17.3848ZM58.5156 14.0566H55.9551V21H53.8984V14.0566H51.3848V12.4688H58.5156V14.0566ZM63.5801 21H61.5293V12.4688H63.5801V21ZM74.1348 21H72.0898L69.0664 15.6914V21H67.0098V12.4688H69.0664L72.084 17.7773V12.4688H74.1348V21ZM84.4199 19.9453C84.1035 20.2969 83.6406 20.5801 83.0312 20.7949C82.4219 21.0098 81.7539 21.1172 81.0273 21.1172C79.9102 21.1172 79.0176 20.7754 78.3496 20.0918C77.6816 19.4082 77.3242 18.457 77.2773 17.2383L77.2715 16.5C77.2715 15.6602 77.4199 14.9277 77.7168 14.3027C78.0137 13.6738 78.4375 13.1914 78.9883 12.8555C79.543 12.5156 80.1836 12.3457 80.9102 12.3457C81.9727 12.3457 82.7969 12.5898 83.3828 13.0781C83.9727 13.5625 84.3164 14.2871 84.4141 15.252H82.4336C82.3633 14.7754 82.2109 14.4355 81.9766 14.2324C81.7422 14.0293 81.4102 13.9277 80.9805 13.9277C80.4648 13.9277 80.0664 14.1465 79.7852 14.584C79.5039 15.0215 79.3613 15.6465 79.3574 16.459V16.9746C79.3574 17.8262 79.502 18.4668 79.791 18.8965C80.084 19.3223 80.543 19.5352 81.168 19.5352C81.7031 19.5352 82.1016 19.416 82.3633 19.1777V17.8535H80.9336V16.4414H84.4199V19.9453Z"
        fill="white" />
</svg>