<svg width="16" height="19" viewBox="0 0 16 19" fill="none" xmlns="http://www.w3.org/2000/svg">
    <path
        d="M6.8 0.671683L0.8 5.30025C0.551608 5.49187 0.350001 5.74034 0.211145 6.02599C0.07229 6.31163 0 6.62661 0 6.94597V16.2031C0 16.7487 0.210714 17.2719 0.585786 17.6577C0.960859 18.0435 1.46957 18.2603 2 18.2603H14C14.5304 18.2603 15.0391 18.0435 15.4142 17.6577C15.7893 17.2719 16 16.7487 16 16.2031V6.94597C16 6.62661 15.9277 6.31163 15.7889 6.02599C15.65 5.74034 15.4484 5.49187 15.2 5.30025L9.2 0.671683C8.85381 0.40462 8.43274 0.260254 8 0.260254C7.56726 0.260254 7.14619 0.40462 6.8 0.671683ZM6 17.2317H4C3.73478 17.2317 3.48043 17.1233 3.29289 16.9304C3.10536 16.7375 3 16.4759 3 16.2031V14.146C3 13.8732 3.10536 13.6116 3.29289 13.4187C3.48043 13.2258 3.73478 13.1174 4 13.1174H6C6.26522 13.1174 6.51957 13.2258 6.70711 13.4187C6.89464 13.6116 7 13.8732 7 14.146V16.2031C7 16.4759 6.89464 16.7375 6.70711 16.9304C6.51957 17.1233 6.26522 17.2317 6 17.2317ZM6 11.0603H4C3.73478 11.0603 3.48043 10.9519 3.29289 10.759C3.10536 10.5661 3 10.3045 3 10.0317V7.97454C3 7.70175 3.10536 7.44012 3.29289 7.24723C3.48043 7.05434 3.73478 6.94597 4 6.94597H6C6.26522 6.94597 6.51957 7.05434 6.70711 7.24723C6.89464 7.44012 7 7.70175 7 7.97454V10.0317C7 10.3045 6.89464 10.5661 6.70711 10.759C6.51957 10.9519 6.26522 11.0603 6 11.0603ZM12 17.2317H10C9.73478 17.2317 9.48043 17.1233 9.29289 16.9304C9.10536 16.7375 9 16.4759 9 16.2031V14.146C9 13.8732 9.10536 13.6116 9.29289 13.4187C9.48043 13.2258 9.73478 13.1174 10 13.1174H12C12.2652 13.1174 12.5196 13.2258 12.7071 13.4187C12.8946 13.6116 13 13.8732 13 14.146V16.2031C13 16.4759 12.8946 16.7375 12.7071 16.9304C12.5196 17.1233 12.2652 17.2317 12 17.2317Z"
        fill="white" />
</svg>